<svg width="20" height="20" viewBox="0 0 20 20" fill="none" xmlns="http://www.w3.org/2000/svg">
<path d="M3.75 8.54945C3.75 5.03584 6.54822 2.1875 10 2.1875C13.4518 2.1875 16.25 5.03584 16.25 8.54945C16.25 12.0355 14.2552 16.1034 11.1429 17.5581C10.4174 17.8973 9.58258 17.8973 8.85711 17.5581C5.74478 16.1034 3.75 12.0355 3.75 8.54945Z" stroke="white"/>
<path d="M7.65625 8.4375C7.65625 9.0591 7.90318 9.65524 8.34272 10.0948C8.78226 10.5343 9.3784 10.7812 10 10.7812C10.6216 10.7812 11.2177 10.5343 11.6573 10.0948C12.0968 9.65524 12.3438 9.0591 12.3438 8.4375C12.3438 7.8159 12.0968 7.21976 11.6573 6.78022C11.2177 6.34068 10.6216 6.09375 10 6.09375C9.3784 6.09375 8.78226 6.34068 8.34272 6.78022C7.90318 7.21976 7.65625 7.8159 7.65625 8.4375Z" stroke="white"/>
</svg>
