<svg width="24" height="24" viewBox="0 0 24 24" fill="none" xmlns="http://www.w3.org/2000/svg">
<path d="M2.625 12C2.625 8.46446 2.625 6.6967 3.72335 5.59835C4.8217 4.5 6.58946 4.5 10.125 4.5H13.875C17.4105 4.5 19.1783 4.5 20.2766 5.59835C21.375 6.6967 21.375 8.46446 21.375 12V13.875C21.375 17.4105 21.375 19.1783 20.2766 20.2766C19.1783 21.375 17.4105 21.375 13.875 21.375H10.125C6.58946 21.375 4.8217 21.375 3.72335 20.2766C2.625 19.1783 2.625 17.4105 2.625 13.875V12Z" stroke="#404040"/>
<path d="M7.3125 4.5V3.09375" stroke="#404040" stroke-linecap="round"/>
<path d="M16.6875 4.5V3.09375" stroke="#404040" stroke-linecap="round"/>
<path d="M3.09375 9.1875H20.9062" stroke="#404040" stroke-linecap="round"/>
<path d="M17.625 16.6875C17.625 17.2053 17.2053 17.625 16.6875 17.625C16.1697 17.625 15.75 17.2053 15.75 16.6875C15.75 16.1697 16.1697 15.75 16.6875 15.75C17.2053 15.75 17.625 16.1697 17.625 16.6875Z" fill="#404040"/>
<path d="M17.625 12.9375C17.625 13.4553 17.2053 13.875 16.6875 13.875C16.1697 13.875 15.75 13.4553 15.75 12.9375C15.75 12.4197 16.1697 12 16.6875 12C17.2053 12 17.625 12.4197 17.625 12.9375Z" fill="#404040"/>
<path d="M12.9375 16.6875C12.9375 17.2053 12.5178 17.625 12 17.625C11.4822 17.625 11.0625 17.2053 11.0625 16.6875C11.0625 16.1697 11.4822 15.75 12 15.75C12.5178 15.75 12.9375 16.1697 12.9375 16.6875Z" fill="#404040"/>
<path d="M12.9375 12.9375C12.9375 13.4553 12.5178 13.875 12 13.875C11.4822 13.875 11.0625 13.4553 11.0625 12.9375C11.0625 12.4197 11.4822 12 12 12C12.5178 12 12.9375 12.4197 12.9375 12.9375Z" fill="#404040"/>
<path d="M8.25 16.6875C8.25 17.2053 7.83026 17.625 7.3125 17.625C6.79474 17.625 6.375 17.2053 6.375 16.6875C6.375 16.1697 6.79474 15.75 7.3125 15.75C7.83026 15.75 8.25 16.1697 8.25 16.6875Z" fill="#404040"/>
<path d="M8.25 12.9375C8.25 13.4553 7.83026 13.875 7.3125 13.875C6.79474 13.875 6.375 13.4553 6.375 12.9375C6.375 12.4197 6.79474 12 7.3125 12C7.83026 12 8.25 12.4197 8.25 12.9375Z" fill="#404040"/>
</svg>
