<svg width="60" height="60" viewBox="0 0 60 60" fill="none" xmlns="http://www.w3.org/2000/svg">
<path d="M6.5625 30C6.5625 36.216 9.0318 42.1774 13.4272 46.5728C17.8226 50.9682 23.784 53.4375 30 53.4375C36.216 53.4375 42.1774 50.9682 46.5728 46.5728C50.9682 42.1774 53.4375 36.216 53.4375 30C53.4375 23.784 50.9682 17.8226 46.5728 13.4272C42.1774 9.0318 36.216 6.5625 30 6.5625C23.784 6.5625 17.8226 9.0318 13.4272 13.4272C9.0318 17.8226 6.5625 23.784 6.5625 30Z" fill="#FC6000"/>
<path d="M38.0009 27.518C39.833 28.5998 39.833 31.4002 38.0009 32.482L26.9379 39.0136C25.1571 40.065 22.9688 38.6965 22.9688 36.5316V23.4683C22.9688 21.3034 25.1571 19.935 26.9379 20.9864L38.0009 27.518Z" fill="white"/>
</svg>
