<svg width="14" height="17" viewBox="0 0 14 17" fill="none" xmlns="http://www.w3.org/2000/svg">
<path d="M13.1364 6.95454C13.1364 11.5909 6.95454 16.2273 6.95454 16.2273C6.95454 16.2273 0.772727 11.5909 0.772727 6.95454C0.772727 5.31502 1.42402 3.74266 2.58334 2.58334C3.74266 1.42402 5.31502 0.772727 6.95454 0.772727C8.59406 0.772727 10.1664 1.42402 11.3257 2.58334C12.4851 3.74266 13.1364 5.31502 13.1364 6.95454Z" stroke="#E2E2E2" stroke-width="1.5" stroke-linecap="round" stroke-linejoin="round"/>
<path d="M6.95454 9.27273C8.23484 9.27273 9.27273 8.23484 9.27273 6.95454C9.27273 5.67425 8.23484 4.63636 6.95454 4.63636C5.67425 4.63636 4.63636 5.67425 4.63636 6.95454C4.63636 8.23484 5.67425 9.27273 6.95454 9.27273Z" stroke="#E2E2E2" stroke-width="1.5" stroke-linecap="round" stroke-linejoin="round"/>
</svg>
