<svg width="20" height="20" viewBox="0 0 20 20" fill="none" xmlns="http://www.w3.org/2000/svg">
<path d="M2.1875 9.21875C2.1875 7.00904 2.1875 5.90419 2.87397 5.21772C3.56044 4.53125 4.66529 4.53125 6.875 4.53125H10.7812C12.9909 4.53125 14.0958 4.53125 14.7823 5.21772C15.4687 5.90419 15.4688 7.00904 15.4688 9.21875C15.4688 11.4284 15.4687 12.5333 14.7823 13.2198C14.0958 13.9062 12.9909 13.9062 10.7812 13.9062H6.875C4.66529 13.9062 3.56044 13.9062 2.87397 13.2198C2.1875 12.5333 2.1875 11.4284 2.1875 9.21875Z" stroke="#1A1A1A"/>
<path d="M15.4688 6.93451C16.2306 7.00944 16.7434 7.17879 17.1262 7.56151C17.8126 8.24798 17.8126 9.35281 17.8126 11.5626C17.8126 13.7723 17.8126 14.8771 17.1262 15.5636C16.4397 16.2501 15.3348 16.2501 13.1251 16.2501H9.21883C7.00915 16.2501 5.9043 16.2501 5.21783 15.5636C4.8351 15.1809 4.66575 14.668 4.59082 13.9063" stroke="#1A1A1A"/>
<path d="M10.7812 9.21875C10.7812 10.2974 9.9068 11.1719 8.82812 11.1719C7.74945 11.1719 6.875 10.2974 6.875 9.21875C6.875 8.14007 7.74945 7.26562 8.82812 7.26562C9.9068 7.26562 10.7812 8.14007 10.7812 9.21875Z" stroke="#1A1A1A"/>
<path d="M13.125 10.7812V7.65625" stroke="#1A1A1A" stroke-linecap="round"/>
<path d="M4.53125 10.7812V7.65625" stroke="#1A1A1A" stroke-linecap="round"/>
</svg>
