<svg width="17" height="17" viewBox="0 0 17 17" fill="none" xmlns="http://www.w3.org/2000/svg">
<path d="M16.1935 12.3421V14.6678C16.1944 14.8837 16.1502 15.0974 16.0637 15.2953C15.9772 15.4931 15.8503 15.6707 15.6912 15.8166C15.5321 15.9626 15.3443 16.0737 15.1398 16.1429C14.9352 16.2121 14.7185 16.2378 14.5035 16.2183C12.1179 15.9591 9.82639 15.1439 7.81307 13.8383C5.93993 12.648 4.35183 11.0599 3.16156 9.1868C1.85137 7.16433 1.03601 4.86167 0.781543 2.46537C0.76217 2.25099 0.787648 2.03492 0.856355 1.83093C0.925062 1.62693 1.03549 1.43948 1.18062 1.2805C1.32574 1.12152 1.50238 0.994497 1.69928 0.907523C1.89618 0.82055 2.10904 0.775529 2.32429 0.775326H4.65005C5.02628 0.771623 5.39102 0.904854 5.67629 1.15019C5.96156 1.39552 6.14789 1.73621 6.20055 2.10876C6.29871 2.85305 6.48076 3.58385 6.74322 4.28721C6.84753 4.56469 6.8701 4.86626 6.80827 5.15618C6.74644 5.44609 6.6028 5.71221 6.39436 5.92299L5.40979 6.90756C6.5134 8.84844 8.12042 10.4555 10.0613 11.5591L11.0459 10.5745C11.2566 10.3661 11.5228 10.2224 11.8127 10.1606C12.1026 10.0988 12.4042 10.1213 12.6816 10.2256C13.385 10.4881 14.1158 10.6701 14.8601 10.7683C15.2367 10.8214 15.5806 11.0111 15.8265 11.3013C16.0723 11.5915 16.203 11.9619 16.1935 12.3421Z" stroke="#E2E2E2" stroke-width="1.5" stroke-linecap="round" stroke-linejoin="round"/>
</svg>
