<svg width="20" height="20" viewBox="0 0 20 20" fill="none" xmlns="http://www.w3.org/2000/svg">
<path d="M2.1875 10C2.1875 12.072 3.0106 14.0591 4.47573 15.5243C5.94086 16.9894 7.928 17.8125 10 17.8125C12.072 17.8125 14.0591 16.9894 15.5243 15.5243C16.9894 14.0591 17.8125 12.072 17.8125 10C17.8125 7.928 16.9894 5.94086 15.5243 4.47573C14.0591 3.0106 12.072 2.1875 10 2.1875C7.928 2.1875 5.94086 3.0106 4.47573 4.47573C3.0106 5.94086 2.1875 7.928 2.1875 10Z" stroke="white"/>
<path d="M12.667 9.17266C13.2777 9.53328 13.2777 10.4667 12.667 10.8273L8.9793 13.0045C8.38571 13.355 7.65625 12.8988 7.65625 12.1772V7.82278C7.65625 7.10115 8.38571 6.64501 8.9793 6.99546L12.667 9.17266Z" stroke="white"/>
</svg>
