<svg width="22" height="16" viewBox="0 0 22 16" fill="none" xmlns="http://www.w3.org/2000/svg">
<path d="M1.30066 13.0853C0.587429 9.71943 0.587429 6.24141 1.30066 2.8755C1.39438 2.53369 1.57545 2.22215 1.82607 1.97153C2.07669 1.72091 2.38823 1.53984 2.73004 1.44613C8.20603 0.538941 13.794 0.538941 19.27 1.44613C19.6118 1.53984 19.9233 1.72091 20.1739 1.97153C20.4246 2.22215 20.6056 2.53369 20.6994 2.8755C21.4126 6.24141 21.4126 9.71943 20.6994 13.0853C20.6056 13.4272 20.4246 13.7387 20.1739 13.9893C19.9233 14.2399 19.6118 14.421 19.27 14.5147C13.794 15.4221 8.20602 15.4221 2.73004 14.5147C2.38823 14.421 2.07669 14.2399 1.82607 13.9893C1.57545 13.7387 1.39438 13.4272 1.30066 13.0853Z" stroke="white" stroke-width="1.5" stroke-linecap="round" stroke-linejoin="round"/>
<path d="M8.95804 11.0434L14.063 7.98042L8.95804 4.91747V11.0434Z" stroke="white" stroke-width="1.5" stroke-linecap="round" stroke-linejoin="round"/>
</svg>
